<?xml version="1.0" encoding="UTF-8"?>
<!DOCTYPE svg PUBLIC "-//W3C//DTD SVG 1.1//EN" "http://www.w3.org/Graphics/SVG/1.1/DTD/svg11.dtd">
<svg xmlns="http://www.w3.org/2000/svg" version="1.1" width="3400px" height="2695px" style="shape-rendering:geometricPrecision; text-rendering:geometricPrecision; image-rendering:optimizeQuality; fill-rule:evenodd; clip-rule:evenodd" xmlns:xlink="http://www.w3.org/1999/xlink">
<g><path style="opacity:0.6" fill="#ff571f" d="M 1545.5,338.5 C 1543.59,341.975 1540.92,344.808 1537.5,347C 1538.65,347.914 1538.49,348.747 1537,349.5C 1536.67,349.167 1536.33,348.833 1536,348.5C 1531.28,354.094 1526.45,359.594 1521.5,365C 1521.83,365.333 1522.17,365.667 1522.5,366C 1521.5,366.333 1520.5,366.667 1519.5,367C 1519.83,367.333 1520.17,367.667 1520.5,368C 1516.34,370.818 1513.5,374.651 1512,379.5C 1511.33,378.167 1510.67,378.167 1510,379.5C 1502.64,391.722 1495.14,403.889 1487.5,416C 1487.83,416.333 1488.17,416.667 1488.5,417C 1486.36,418.943 1484.69,421.276 1483.5,424C 1483.83,424.333 1484.17,424.667 1484.5,425C 1482.37,425.918 1481.7,427.251 1482.5,429C 1481.26,431.912 1479.59,434.579 1477.5,437C 1477.5,438.333 1477.5,439.667 1477.5,441C 1474.66,443.827 1473.16,447.327 1473,451.5C 1470.9,453.634 1470.07,455.968 1470.5,458.5C 1469.97,459.192 1469.31,459.692 1468.5,460C 1468.11,461.525 1468.11,463.192 1468.5,465C 1465.94,467.124 1465.11,469.624 1466,472.5C 1465.67,472.167 1465.33,471.833 1465,471.5C 1464.73,473.101 1464.23,474.601 1463.5,476C 1463.96,476.414 1464.29,476.914 1464.5,477.5C 1461.99,480.362 1461.32,483.528 1462.5,487C 1461.37,488.753 1460.37,490.587 1459.5,492.5C 1458.7,495.503 1458.7,498.67 1459.5,502C 1458.83,502.333 1458.17,502.667 1457.5,503C 1457.62,504.268 1457.95,505.602 1458.5,507C 1457.64,507.689 1456.98,508.522 1456.5,509.5C 1456.72,510.967 1457.06,512.467 1457.5,514C 1456.03,518.369 1455.03,522.869 1454.5,527.5C 1454.88,540.809 1454.88,554.975 1454.5,570C 1456,573.878 1456.33,577.878 1455.5,582C 1457.08,584.879 1457.58,588.046 1457,591.5C 1457.5,592 1458,592.5 1458.5,593C 1457.95,594.398 1457.62,595.732 1457.5,597C 1458.17,597.667 1458.83,598.333 1459.5,599C 1459.54,600.245 1459.21,601.578 1458.5,603C 1458.91,603.945 1459.57,604.612 1460.5,605C 1459.9,608.762 1459.9,612.429 1460.5,616C 1461.13,617.892 1462.13,619.559 1463.5,621C 1462.8,624.336 1463.47,627.502 1465.5,630.5C 1465.32,637.487 1466.99,644.487 1470.5,651.5C 1470.29,652.086 1469.96,652.586 1469.5,653C 1470.6,657.309 1472.26,661.309 1474.5,665C 1473.19,666.395 1473.52,667.395 1475.5,668C 1475.5,669.667 1475.5,671.333 1475.5,673C 1476.71,676.512 1478.37,680.179 1480.5,684C 1479.37,685.016 1479.7,685.683 1481.5,686C 1480.89,688.184 1481.56,690.184 1483.5,692C 1482.7,693.749 1483.37,695.082 1485.5,696C 1484.42,698.19 1485.08,699.856 1487.5,701C 1487.17,701.333 1486.83,701.667 1486.5,702C 1488.88,706.36 1491.21,710.693 1493.5,715C 1493.17,715.333 1492.83,715.667 1492.5,716C 1496.32,723.143 1500.32,729.643 1504.5,735.5C 1504.29,736.086 1503.96,736.586 1503.5,737C 1505.83,740 1508.17,743 1510.5,746C 1510.17,746.333 1509.83,746.667 1509.5,747C 1510.83,748 1512.17,749 1513.5,750C 1513.17,750.333 1512.83,750.667 1512.5,751C 1516.37,756.427 1519.87,761.594 1523,766.5C 1523.33,766.167 1523.67,765.833 1524,765.5C 1525.11,766.76 1525.28,767.927 1524.5,769C 1527.3,769.439 1528.3,770.772 1527.5,773C 1528.88,774.713 1530.54,776.047 1532.5,777C 1532.17,777.333 1531.83,777.667 1531.5,778C 1532.62,779.044 1533.96,779.71 1535.5,780C 1537.37,785.259 1541.04,789.593 1546.5,793C 1545.35,793.914 1545.51,794.747 1547,795.5C 1548.36,794.742 1549.53,795.242 1550.5,797C 1550.17,797.333 1549.83,797.667 1549.5,798C 1551.53,800.787 1553.86,802.453 1556.5,803C 1556.17,803.333 1555.83,803.667 1555.5,804C 1561.99,809.489 1568.49,814.989 1575,820.5C 1575.33,820.167 1575.67,819.833 1576,819.5C 1577.11,821.908 1578.78,823.908 1581,825.5C 1581.33,825.167 1581.67,824.833 1582,824.5C 1583,825.833 1584,827.167 1585,828.5C 1586.56,827.655 1587.56,828.321 1588,830.5C 1588.33,830.167 1588.67,829.833 1589,829.5C 1589.47,830.931 1590.3,832.097 1591.5,833C 1593.58,833.778 1595.42,834.945 1597,836.5C 1597.33,836.167 1597.67,835.833 1598,835.5C 1601.35,838.923 1604.68,841.59 1608,843.5C 1608.41,843.043 1608.91,842.709 1609.5,842.5C 1619.55,850.107 1630.05,855.44 1641,858.5C 1650.22,862.951 1658.88,866.617 1667,869.5C 1667.33,869.167 1667.67,868.833 1668,868.5C 1672.66,871.231 1677.49,872.564 1682.5,872.5C 1685.24,874.375 1688.07,875.042 1691,874.5C 1692.08,876.394 1693.41,876.727 1695,875.5C 1699.06,877.453 1703.39,878.786 1708,879.5C 1708.77,879.355 1709.44,879.022 1710,878.5C 1715.61,880.538 1721.44,881.871 1727.5,882.5C 1729.71,881.601 1731.87,881.935 1734,883.5C 1740.31,884.139 1746.81,884.139 1753.5,883.5C 1755.5,884.167 1757.5,884.833 1759.5,885.5C 1763.88,885.81 1768.05,885.477 1772,884.5C 1772.39,885.428 1773.05,886.095 1774,886.5C 1776.07,885.939 1778.07,885.606 1780,885.5C 1784.04,886.665 1788.04,887.665 1792,888.5C 1795.83,888.384 1799.66,888.384 1803.5,888.5C 1805.12,890.439 1806.96,890.772 1809,889.5C 1811.73,890.701 1814.39,891.701 1817,892.5C 1818,892.167 1819,891.833 1820,891.5C 1826.17,894.193 1832.17,895.526 1838,895.5C 1841.21,896.696 1844.71,898.029 1848.5,899.5C 1849.17,899.167 1849.83,898.833 1850.5,898.5C 1853.71,900.311 1856.88,901.977 1860,903.5C 1860.41,903.043 1860.91,902.709 1861.5,902.5C 1862.52,903.687 1863.69,904.687 1865,905.5C 1865.33,905.167 1865.67,904.833 1866,904.5C 1867.46,906.422 1869.13,907.089 1871,906.5C 1873.26,909.299 1875.93,910.632 1879,910.5C 1882.11,913.396 1885.44,916.063 1889,918.5C 1889.33,918.167 1889.67,917.833 1890,917.5C 1897.01,923.678 1903.84,930.011 1910.5,936.5C 1920.28,948.832 1927.95,960.999 1933.5,973C 1933.17,973.333 1932.83,973.667 1932.5,974C 1937.11,983.843 1940.45,993.843 1942.5,1004C 1943.17,1004.33 1943.83,1004.67 1944.5,1005C 1944.31,1006.9 1944.31,1008.74 1944.5,1010.5C 1944.98,1011.48 1945.64,1012.31 1946.5,1013C 1946.13,1016.67 1947.13,1020.17 1949.5,1023.5C 1948.1,1024.84 1948.43,1025.68 1950.5,1026C 1950.17,1026.33 1949.83,1026.67 1949.5,1027C 1952.44,1036.23 1954.77,1045.4 1956.5,1054.5C 1958.36,1056.54 1959.02,1058.71 1958.5,1061C 1959.1,1065.23 1960.43,1069.23 1962.5,1073C 1961.07,1074.71 1961.41,1076.05 1963.5,1077C 1963.51,1078.58 1963.17,1080.25 1962.5,1082C 1963.76,1083.71 1964.1,1085.37 1963.5,1087C 1964.17,1087.33 1964.83,1087.67 1965.5,1088C 1965.06,1089.53 1964.72,1091.03 1964.5,1092.5C 1965.03,1093.19 1965.69,1093.69 1966.5,1094C 1965.91,1095.89 1965.58,1097.89 1965.5,1100C 1966.5,1102.33 1967.5,1104.67 1968.5,1107C 1967.91,1108.89 1967.58,1110.89 1967.5,1113C 1969.17,1114.57 1969.5,1116.23 1968.5,1118C 1969.93,1121.1 1970.93,1124.1 1971.5,1127C 1971.17,1127.33 1970.83,1127.67 1970.5,1128C 1972.28,1131.5 1973.62,1134.84 1974.5,1138C 1974.75,1139.91 1974.75,1141.91 1974.5,1144C 1976.3,1144.32 1976.63,1144.98 1975.5,1146C 1976.92,1148.98 1977.75,1152.15 1978,1155.5C 1980.41,1160.12 1982.24,1164.95 1983.5,1170C 1982.19,1171.39 1982.52,1172.39 1984.5,1173C 1984.03,1176.61 1985.03,1179.95 1987.5,1183C 1986.54,1184.15 1986.88,1185.15 1988.5,1186C 1987.54,1187.15 1987.88,1188.15 1989.5,1189C 1989.5,1190.33 1989.5,1191.67 1989.5,1193C 1990.31,1195.63 1991.65,1197.96 1993.5,1200C 1993.04,1200.41 1992.71,1200.91 1992.5,1201.5C 1994.34,1204.65 1996.01,1207.82 1997.5,1211C 1997.04,1211.41 1996.71,1211.91 1996.5,1212.5C 1999.03,1219.26 2002.03,1225.76 2005.5,1232C 2005.17,1232.33 2004.83,1232.67 2004.5,1233C 2008.81,1241.18 2012.81,1249.18 2016.5,1257C 2016.17,1257.33 2015.83,1257.67 2015.5,1258C 2017.77,1263.57 2020.77,1268.57 2024.5,1273C 2024.17,1273.33 2023.83,1273.67 2023.5,1274C 2027.95,1281.76 2032.11,1289.26 2036,1296.5C 2038.4,1297.48 2039.24,1298.98 2038.5,1301C 2040.36,1304.4 2042.69,1307.4 2045.5,1310C 2045.17,1310.33 2044.83,1310.67 2044.5,1311C 2046.72,1312.76 2048.72,1314.76 2050.5,1317C 2050.04,1317.41 2049.71,1317.91 2049.5,1318.5C 2050.5,1319.33 2051.5,1320.17 2052.5,1321C 2051.65,1322.56 2052.32,1323.56 2054.5,1324C 2055.46,1327.81 2057.8,1331.15 2061.5,1334C 2061.17,1334.33 2060.83,1334.67 2060.5,1335C 2061.49,1337.33 2063.49,1339.33 2066.5,1341C 2066.17,1341.33 2065.83,1341.67 2065.5,1342C 2067.05,1343.21 2068.22,1344.71 2069,1346.5C 2069.67,1347.83 2070.33,1347.83 2071,1346.5C 2072.01,1350.84 2074.51,1354.01 2078.5,1356C 2077.65,1357.56 2078.32,1358.56 2080.5,1359C 2080.17,1359.33 2079.83,1359.67 2079.5,1360C 2080.45,1360.48 2081.45,1360.65 2082.5,1360.5C 2082.49,1362.31 2082.99,1363.98 2084,1365.5C 2091.64,1373.81 2099.31,1382.14 2107,1390.5C 2108.36,1389.74 2109.53,1390.24 2110.5,1392C 2110.17,1392.33 2109.83,1392.67 2109.5,1393C 2112,1394.17 2113.83,1396 2115,1398.5C 2116.36,1397.74 2117.53,1398.24 2118.5,1400C 2119.85,1403.44 2122.35,1406.6 2126,1409.5C 2126.33,1409.17 2126.67,1408.83 2127,1408.5C 2129.03,1410.86 2131.03,1413.19 2133,1415.5C 2133.33,1415.17 2133.67,1414.83 2134,1414.5C 2134.68,1416.36 2135.68,1418.03 2137,1419.5C 2137.33,1419.17 2137.67,1418.83 2138,1418.5C 2147.32,1428.14 2156.99,1436.81 2167,1444.5C 2167.33,1444.17 2167.67,1443.83 2168,1443.5C 2168.33,1444.5 2168.67,1445.5 2169,1446.5C 2169.33,1446.17 2169.67,1445.83 2170,1445.5C 2171.77,1449.47 2174.1,1451.14 2177,1450.5C 2177.33,1451.5 2177.67,1452.5 2178,1453.5C 2178.33,1453.17 2178.67,1452.83 2179,1452.5C 2180,1453.83 2181,1455.17 2182,1456.5C 2184.23,1455.7 2185.56,1456.7 2186,1459.5C 2186.33,1459.17 2186.67,1458.83 2187,1458.5C 2188.61,1461.76 2190.94,1463.43 2194,1463.5C 2205.43,1472.47 2217.77,1481.14 2231,1489.5C 2233.33,1488.84 2235,1489.84 2236,1492.5C 2236.41,1492.04 2236.91,1491.71 2237.5,1491.5C 2242.94,1495.05 2248.44,1498.72 2254,1502.5C 2254.33,1502.17 2254.67,1501.83 2255,1501.5C 2265.59,1507.71 2275.76,1513.21 2285.5,1518C 2303.9,1526.16 2323.74,1533.66 2345,1540.5C 2346.02,1539.37 2346.68,1539.7 2347,1541.5C 2348.53,1541.89 2350.19,1541.89 2352,1541.5C 2356.35,1543.14 2360.68,1544.81 2365,1546.5C 2365.77,1546.36 2366.44,1546.02 2367,1545.5C 2369.95,1547.57 2372.95,1548.9 2376,1549.5C 2378.03,1549.87 2380.2,1549.87 2382.5,1549.5C 2383.48,1549.98 2384.31,1550.64 2385,1551.5C 2387.22,1551.94 2389.55,1551.94 2392,1551.5C 2393.4,1553.53 2395.06,1553.86 2397,1552.5C 2398.19,1554.53 2399.69,1554.86 2401.5,1553.5C 2402.55,1554.38 2403.71,1555.05 2405,1555.5C 2407.59,1555.76 2410.26,1555.76 2413,1555.5C 2416.03,1556.45 2419.03,1557.45 2422,1558.5C 2424.33,1558.17 2426.67,1557.83 2429,1557.5C 2429.52,1558.52 2430.35,1559.18 2431.5,1559.5C 2435.55,1560.18 2439.72,1560.18 2444,1559.5C 2447.35,1561.4 2450.69,1561.73 2454,1560.5C 2456.22,1561.47 2458.55,1562.14 2461,1562.5C 2464.94,1562.56 2468.94,1562.22 2473,1561.5C 2474.74,1562.89 2476.74,1563.56 2479,1563.5C 2493.15,1563.37 2507.32,1563.37 2521.5,1563.5C 2428.58,1626.39 2326.58,1648.22 2215.5,1629C 2163.03,1618.73 2113.36,1600.73 2066.5,1575C 2048,1564.25 2029.67,1553.25 2011.5,1542C 1980.01,1519.42 1948.34,1497.09 1916.5,1475C 1893.74,1459.96 1869.08,1449.29 1842.5,1443C 1818.86,1438.68 1795.69,1440.52 1773,1448.5C 1747.67,1457.92 1723.83,1470.08 1701.5,1485C 1649.5,1520.33 1597.5,1555.67 1545.5,1591C 1487.04,1629.9 1425.04,1662.57 1359.5,1689C 1286.27,1716.05 1210.6,1731.05 1132.5,1734C 964.688,1741.89 812.021,1698.23 674.5,1603C 583.075,1538.91 506.575,1460.41 445,1367.5C 361.514,1233.89 324.847,1088.22 335,930.5C 340.811,817.919 368.811,711.253 419,610.5C 472.535,509.03 546.368,425.196 640.5,359C 716.921,302.953 800.588,260.286 891.5,231C 1023.06,191.896 1155.4,189.23 1288.5,223C 1369.7,243.777 1446.03,275.777 1517.5,319C 1527.07,325.276 1536.41,331.776 1545.5,338.5 Z"/></g>
<g><path style="opacity:0.583" fill="#ff5721" d="M 2521.5,1563.5 C 2507.32,1563.37 2493.15,1563.37 2479,1563.5C 2476.74,1563.56 2474.74,1562.89 2473,1561.5C 2468.94,1562.22 2464.94,1562.56 2461,1562.5C 2458.55,1562.14 2456.22,1561.47 2454,1560.5C 2450.69,1561.73 2447.35,1561.4 2444,1559.5C 2439.72,1560.18 2435.55,1560.18 2431.5,1559.5C 2430.35,1559.18 2429.52,1558.52 2429,1557.5C 2426.67,1557.83 2424.33,1558.17 2422,1558.5C 2419.03,1557.45 2416.03,1556.45 2413,1555.5C 2410.26,1555.76 2407.59,1555.76 2405,1555.5C 2403.71,1555.05 2402.55,1554.38 2401.5,1553.5C 2399.69,1554.86 2398.19,1554.53 2397,1552.5C 2395.06,1553.86 2393.4,1553.53 2392,1551.5C 2389.55,1551.94 2387.22,1551.94 2385,1551.5C 2384.31,1550.64 2383.48,1549.98 2382.5,1549.5C 2380.2,1549.87 2378.03,1549.87 2376,1549.5C 2372.95,1548.9 2369.95,1547.57 2367,1545.5C 2366.44,1546.02 2365.77,1546.36 2365,1546.5C 2360.68,1544.81 2356.35,1543.14 2352,1541.5C 2350.19,1541.89 2348.53,1541.89 2347,1541.5C 2346.68,1539.7 2346.02,1539.37 2345,1540.5C 2323.74,1533.66 2303.9,1526.16 2285.5,1518C 2275.76,1513.21 2265.59,1507.71 2255,1501.5C 2254.67,1501.83 2254.33,1502.17 2254,1502.5C 2248.44,1498.72 2242.94,1495.05 2237.5,1491.5C 2236.91,1491.71 2236.41,1492.04 2236,1492.5C 2235,1489.84 2233.33,1488.84 2231,1489.5C 2217.77,1481.14 2205.43,1472.47 2194,1463.5C 2190.94,1463.43 2188.61,1461.76 2187,1458.5C 2186.67,1458.83 2186.33,1459.17 2186,1459.5C 2185.56,1456.7 2184.23,1455.7 2182,1456.5C 2181,1455.17 2180,1453.83 2179,1452.5C 2178.67,1452.83 2178.33,1453.17 2178,1453.5C 2177.67,1452.5 2177.33,1451.5 2177,1450.5C 2174.1,1451.14 2171.77,1449.47 2170,1445.5C 2169.67,1445.83 2169.33,1446.17 2169,1446.5C 2168.67,1445.5 2168.33,1444.5 2168,1443.5C 2167.67,1443.83 2167.33,1444.17 2167,1444.5C 2156.99,1436.81 2147.32,1428.14 2138,1418.5C 2137.67,1418.83 2137.33,1419.17 2137,1419.5C 2135.68,1418.03 2134.68,1416.36 2134,1414.5C 2133.67,1414.83 2133.33,1415.17 2133,1415.5C 2131.03,1413.19 2129.03,1410.86 2127,1408.5C 2126.67,1408.83 2126.33,1409.17 2126,1409.5C 2122.35,1406.6 2119.85,1403.44 2118.5,1400C 2117.53,1398.24 2116.36,1397.74 2115,1398.5C 2113.83,1396 2112,1394.17 2109.5,1393C 2109.83,1392.67 2110.17,1392.33 2110.5,1392C 2109.53,1390.24 2108.36,1389.74 2107,1390.5C 2099.31,1382.14 2091.64,1373.81 2084,1365.5C 2082.99,1363.98 2082.49,1362.31 2082.5,1360.5C 2081.45,1360.65 2080.45,1360.48 2079.5,1360C 2079.83,1359.67 2080.17,1359.33 2080.5,1359C 2078.32,1358.56 2077.65,1357.56 2078.5,1356C 2074.51,1354.01 2072.01,1350.84 2071,1346.5C 2070.33,1347.83 2069.67,1347.83 2069,1346.5C 2068.22,1344.71 2067.05,1343.21 2065.5,1342C 2065.83,1341.67 2066.17,1341.33 2066.5,1341C 2063.49,1339.33 2061.49,1337.33 2060.5,1335C 2060.83,1334.67 2061.17,1334.33 2061.5,1334C 2057.8,1331.15 2055.46,1327.81 2054.5,1324C 2052.32,1323.56 2051.65,1322.56 2052.5,1321C 2051.5,1320.17 2050.5,1319.33 2049.5,1318.5C 2049.71,1317.91 2050.04,1317.41 2050.5,1317C 2048.72,1314.76 2046.72,1312.76 2044.5,1311C 2044.83,1310.67 2045.17,1310.33 2045.5,1310C 2042.69,1307.4 2040.36,1304.4 2038.5,1301C 2039.24,1298.98 2038.4,1297.48 2036,1296.5C 2032.11,1289.26 2027.95,1281.76 2023.5,1274C 2023.83,1273.67 2024.17,1273.33 2024.5,1273C 2020.77,1268.57 2017.77,1263.57 2015.5,1258C 2015.83,1257.67 2016.17,1257.33 2016.5,1257C 2012.81,1249.18 2008.81,1241.18 2004.5,1233C 2004.83,1232.67 2005.17,1232.33 2005.5,1232C 2002.03,1225.76 1999.03,1219.26 1996.5,1212.5C 1996.71,1211.91 1997.04,1211.41 1997.5,1211C 1996.01,1207.82 1994.34,1204.65 1992.5,1201.5C 1992.71,1200.91 1993.04,1200.41 1993.5,1200C 1991.65,1197.96 1990.31,1195.63 1989.5,1193C 1989.5,1191.67 1989.5,1190.33 1989.5,1189C 1987.88,1188.15 1987.54,1187.15 1988.5,1186C 1986.88,1185.15 1986.54,1184.15 1987.5,1183C 1985.03,1179.95 1984.03,1176.61 1984.5,1173C 1982.52,1172.39 1982.19,1171.39 1983.5,1170C 1982.24,1164.95 1980.41,1160.12 1978,1155.5C 1977.75,1152.15 1976.92,1148.98 1975.5,1146C 1976.63,1144.98 1976.3,1144.32 1974.5,1144C 1974.75,1141.91 1974.75,1139.91 1974.5,1138C 1973.62,1134.84 1972.28,1131.5 1970.5,1128C 1970.83,1127.67 1971.17,1127.33 1971.5,1127C 1970.93,1124.1 1969.93,1121.1 1968.5,1118C 1969.5,1116.23 1969.17,1114.57 1967.5,1113C 1967.58,1110.89 1967.91,1108.89 1968.5,1107C 1967.5,1104.67 1966.5,1102.33 1965.5,1100C 1965.58,1097.89 1965.91,1095.89 1966.5,1094C 1965.69,1093.69 1965.03,1093.19 1964.5,1092.5C 1964.72,1091.03 1965.06,1089.53 1965.5,1088C 1964.83,1087.67 1964.17,1087.33 1963.5,1087C 1964.1,1085.37 1963.76,1083.71 1962.5,1082C 1963.17,1080.25 1963.51,1078.58 1963.5,1077C 1961.41,1076.05 1961.07,1074.71 1962.5,1073C 1960.43,1069.23 1959.1,1065.23 1958.5,1061C 1959.02,1058.71 1958.36,1056.54 1956.5,1054.5C 1954.77,1045.4 1952.44,1036.23 1949.5,1027C 1949.83,1026.67 1950.17,1026.33 1950.5,1026C 1948.43,1025.68 1948.1,1024.84 1949.5,1023.5C 1947.13,1020.17 1946.13,1016.67 1946.5,1013C 1945.64,1012.31 1944.98,1011.48 1944.5,1010.5C 1944.31,1008.74 1944.31,1006.9 1944.5,1005C 1943.83,1004.67 1943.17,1004.33 1942.5,1004C 1940.45,993.843 1937.11,983.843 1932.5,974C 1932.83,973.667 1933.17,973.333 1933.5,973C 1927.95,960.999 1920.28,948.832 1910.5,936.5C 1903.84,930.011 1897.01,923.678 1890,917.5C 1889.67,917.833 1889.33,918.167 1889,918.5C 1885.44,916.063 1882.11,913.396 1879,910.5C 1875.93,910.632 1873.26,909.299 1871,906.5C 1869.13,907.089 1867.46,906.422 1866,904.5C 1865.67,904.833 1865.33,905.167 1865,905.5C 1863.69,904.687 1862.52,903.687 1861.5,902.5C 1860.91,902.709 1860.41,903.043 1860,903.5C 1856.88,901.977 1853.71,900.311 1850.5,898.5C 1849.83,898.833 1849.17,899.167 1848.5,899.5C 1844.71,898.029 1841.21,896.696 1838,895.5C 1832.17,895.526 1826.17,894.193 1820,891.5C 1819,891.833 1818,892.167 1817,892.5C 1814.39,891.701 1811.73,890.701 1809,889.5C 1806.96,890.772 1805.12,890.439 1803.5,888.5C 1799.66,888.384 1795.83,888.384 1792,888.5C 1788.04,887.665 1784.04,886.665 1780,885.5C 1778.07,885.606 1776.07,885.939 1774,886.5C 1773.05,886.095 1772.39,885.428 1772,884.5C 1768.05,885.477 1763.88,885.81 1759.5,885.5C 1757.5,884.833 1755.5,884.167 1753.5,883.5C 1746.81,884.139 1740.31,884.139 1734,883.5C 1731.87,881.935 1729.71,881.601 1727.5,882.5C 1721.44,881.871 1715.61,880.538 1710,878.5C 1709.44,879.022 1708.77,879.355 1708,879.5C 1703.39,878.786 1699.06,877.453 1695,875.5C 1693.41,876.727 1692.08,876.394 1691,874.5C 1688.07,875.042 1685.24,874.375 1682.5,872.5C 1677.49,872.564 1672.66,871.231 1668,868.5C 1667.67,868.833 1667.33,869.167 1667,869.5C 1658.88,866.617 1650.22,862.951 1641,858.5C 1630.05,855.44 1619.55,850.107 1609.5,842.5C 1608.91,842.709 1608.41,843.043 1608,843.5C 1604.68,841.59 1601.35,838.923 1598,835.5C 1597.67,835.833 1597.33,836.167 1597,836.5C 1595.42,834.945 1593.58,833.778 1591.5,833C 1590.3,832.097 1589.47,830.931 1589,829.5C 1588.67,829.833 1588.33,830.167 1588,830.5C 1587.56,828.321 1586.56,827.655 1585,828.5C 1584,827.167 1583,825.833 1582,824.5C 1581.67,824.833 1581.33,825.167 1581,825.5C 1578.78,823.908 1577.11,821.908 1576,819.5C 1575.67,819.833 1575.33,820.167 1575,820.5C 1568.49,814.989 1561.99,809.489 1555.5,804C 1555.83,803.667 1556.17,803.333 1556.5,803C 1553.86,802.453 1551.53,800.787 1549.5,798C 1549.83,797.667 1550.17,797.333 1550.5,797C 1549.53,795.242 1548.36,794.742 1547,795.5C 1545.51,794.747 1545.35,793.914 1546.5,793C 1541.04,789.593 1537.37,785.259 1535.5,780C 1533.96,779.71 1532.62,779.044 1531.5,778C 1531.83,777.667 1532.17,777.333 1532.5,777C 1530.54,776.047 1528.88,774.713 1527.5,773C 1528.3,770.772 1527.3,769.439 1524.5,769C 1525.28,767.927 1525.11,766.76 1524,765.5C 1523.67,765.833 1523.33,766.167 1523,766.5C 1519.87,761.594 1516.37,756.427 1512.5,751C 1512.83,750.667 1513.17,750.333 1513.5,750C 1512.17,749 1510.83,748 1509.5,747C 1509.83,746.667 1510.17,746.333 1510.5,746C 1508.17,743 1505.83,740 1503.5,737C 1503.96,736.586 1504.29,736.086 1504.5,735.5C 1500.32,729.643 1496.32,723.143 1492.5,716C 1492.83,715.667 1493.17,715.333 1493.5,715C 1491.21,710.693 1488.88,706.36 1486.5,702C 1486.83,701.667 1487.17,701.333 1487.5,701C 1485.08,699.856 1484.42,698.19 1485.5,696C 1483.37,695.082 1482.7,693.749 1483.5,692C 1481.56,690.184 1480.89,688.184 1481.5,686C 1479.7,685.683 1479.37,685.016 1480.5,684C 1478.37,680.179 1476.71,676.512 1475.5,673C 1475.5,671.333 1475.5,669.667 1475.5,668C 1473.52,667.395 1473.19,666.395 1474.5,665C 1472.26,661.309 1470.6,657.309 1469.5,653C 1469.96,652.586 1470.29,652.086 1470.5,651.5C 1466.99,644.487 1465.32,637.487 1465.5,630.5C 1463.47,627.502 1462.8,624.336 1463.5,621C 1462.13,619.559 1461.13,617.892 1460.5,616C 1459.9,612.429 1459.9,608.762 1460.5,605C 1459.57,604.612 1458.91,603.945 1458.5,603C 1459.21,601.578 1459.54,600.245 1459.5,599C 1458.83,598.333 1458.17,597.667 1457.5,597C 1457.62,595.732 1457.95,594.398 1458.5,593C 1458,592.5 1457.5,592 1457,591.5C 1457.58,588.046 1457.08,584.879 1455.5,582C 1456.33,577.878 1456,573.878 1454.5,570C 1454.88,554.975 1454.88,540.809 1454.5,527.5C 1455.03,522.869 1456.03,518.369 1457.5,514C 1457.06,512.467 1456.72,510.967 1456.5,509.5C 1456.98,508.522 1457.64,507.689 1458.5,507C 1457.95,505.602 1457.62,504.268 1457.5,503C 1458.17,502.667 1458.83,502.333 1459.5,502C 1458.7,498.67 1458.7,495.503 1459.5,492.5C 1460.37,490.587 1461.37,488.753 1462.5,487C 1461.32,483.528 1461.99,480.362 1464.5,477.5C 1464.29,476.914 1463.96,476.414 1463.5,476C 1464.23,474.601 1464.73,473.101 1465,471.5C 1465.33,471.833 1465.67,472.167 1466,472.5C 1465.11,469.624 1465.94,467.124 1468.5,465C 1468.11,463.192 1468.11,461.525 1468.5,460C 1469.31,459.692 1469.97,459.192 1470.5,458.5C 1470.07,455.968 1470.9,453.634 1473,451.5C 1473.16,447.327 1474.66,443.827 1477.5,441C 1477.5,439.667 1477.5,438.333 1477.5,437C 1479.59,434.579 1481.26,431.912 1482.5,429C 1481.7,427.251 1482.37,425.918 1484.5,425C 1484.17,424.667 1483.83,424.333 1483.5,424C 1484.69,421.276 1486.36,418.943 1488.5,417C 1488.17,416.667 1487.83,416.333 1487.5,416C 1495.14,403.889 1502.64,391.722 1510,379.5C 1510.67,378.167 1511.33,378.167 1512,379.5C 1513.5,374.651 1516.34,370.818 1520.5,368C 1520.17,367.667 1519.83,367.333 1519.5,367C 1520.5,366.667 1521.5,366.333 1522.5,366C 1522.17,365.667 1521.83,365.333 1521.5,365C 1526.45,359.594 1531.28,354.094 1536,348.5C 1536.33,348.833 1536.67,349.167 1537,349.5C 1538.49,348.747 1538.65,347.914 1537.5,347C 1540.92,344.808 1543.59,341.975 1545.5,338.5C 1613.22,277.499 1692.88,244.832 1784.5,240.5C 1862.34,241.821 1930.01,268.321 1987.5,320C 2005.11,337.269 2021.61,355.436 2037,374.5C 2056.06,401.894 2074.72,429.56 2093,457.5C 2104.08,472.915 2116.91,486.749 2131.5,499C 2153.21,513.76 2177.21,519.76 2203.5,517C 2209.51,516.465 2215.51,515.799 2221.5,515C 2276.58,503.384 2331.58,491.384 2386.5,479C 2440.57,467.325 2495.24,462.325 2550.5,464C 2775.78,486.358 2932.94,601.191 3022,808.5C 3087.26,968.563 3078.59,1124.56 2996,1276.5C 2911.94,1429.7 2783.44,1521.87 2610.5,1553C 2581.02,1558.29 2551.35,1561.79 2521.5,1563.5 Z"/></g>
<g><path style="opacity:0.969" fill="#ff5721" d="M 678.5,2143.5 C 684.5,2143.5 690.5,2143.5 696.5,2143.5C 696.5,2162.5 696.5,2181.5 696.5,2200.5C 690.5,2200.5 684.5,2200.5 678.5,2200.5C 678.5,2181.5 678.5,2162.5 678.5,2143.5 Z"/></g>
<g><path style="opacity:0.998" fill="#ff5621" d="M 1110.5,2143.5 C 1116.5,2143.5 1122.5,2143.5 1128.5,2143.5C 1128.5,2258.83 1128.5,2374.17 1128.5,2489.5C 1122.5,2489.5 1116.5,2489.5 1110.5,2489.5C 1110.5,2374.17 1110.5,2258.83 1110.5,2143.5 Z"/></g>
<g><path style="opacity:0.939" fill="#ff5621" d="M 1225.5,2143.5 C 1231.5,2143.5 1237.5,2143.5 1243.5,2143.5C 1243.5,2258.83 1243.5,2374.17 1243.5,2489.5C 1237.5,2489.5 1231.5,2489.5 1225.5,2489.5C 1225.5,2374.17 1225.5,2258.83 1225.5,2143.5 Z"/></g>
<g><path style="opacity:0.919" fill="#ff5622" d="M 2879.5,2143.5 C 2885.5,2143.5 2891.5,2143.5 2897.5,2143.5C 2897.5,2162.5 2897.5,2181.5 2897.5,2200.5C 2891.5,2200.5 2885.5,2200.5 2879.5,2200.5C 2879.5,2181.5 2879.5,2162.5 2879.5,2143.5 Z"/></g>
<g><path style="opacity:0.96" fill="#ff5621" d="M 605.5,2237.5 C 610.833,2237.5 616.167,2237.5 621.5,2237.5C 621.5,2242.83 621.5,2248.17 621.5,2253.5C 573.324,2255.53 538.824,2278.2 518,2321.5C 513.926,2331.46 511.259,2341.8 510,2352.5C 509.5,2398.17 509.333,2443.83 509.5,2489.5C 503.833,2489.5 498.167,2489.5 492.5,2489.5C 492.333,2444.83 492.5,2400.17 493,2355.5C 497.063,2308.85 519.563,2274.35 560.5,2252C 574.868,2244.82 589.868,2239.99 605.5,2237.5 Z"/></g>
<g><path style="opacity:0.969" fill="#ff5621" d="M 892.5,2237.5 C 945.052,2235.69 985.552,2256.69 1014,2300.5C 1036.94,2343.33 1037.27,2386.33 1015,2429.5C 980.774,2482.18 932.607,2502.34 870.5,2490C 826.757,2476.59 796.923,2448.42 781,2405.5C 764.759,2340.85 784.259,2290.35 839.5,2254C 856.182,2244.92 873.848,2239.42 892.5,2237.5 Z M 888.5,2254.5 C 946.123,2251.72 986.29,2276.72 1009,2329.5C 1023.96,2383.71 1008.79,2427.21 963.5,2460C 928.713,2480.48 892.713,2482.81 855.5,2467C 805.031,2438.56 784.865,2395.72 795,2338.5C 806.2,2301.96 829.367,2276.13 864.5,2261C 872.459,2258.18 880.459,2256.01 888.5,2254.5 Z"/></g>
<g><path style="opacity:0.972" fill="#ff5621" d="M 1440.5,2237.5 C 1495.17,2235.91 1536.67,2258.25 1565,2304.5C 1572.9,2319.55 1577.57,2335.55 1579,2352.5C 1579.5,2398.17 1579.67,2443.83 1579.5,2489.5C 1574.17,2489.5 1568.83,2489.5 1563.5,2489.5C 1563.67,2446.5 1563.5,2403.5 1563,2360.5C 1561.31,2327.61 1547.81,2300.78 1522.5,2280C 1485.51,2251.63 1445.51,2246.63 1402.5,2265C 1351.81,2292.88 1331.64,2335.38 1342,2392.5C 1355.56,2439.07 1386.06,2467.23 1433.5,2477C 1454.35,2479.98 1474.52,2477.48 1494,2469.5C 1495.48,2470.44 1496.48,2471.78 1497,2473.5C 1498.68,2477.17 1500.02,2480.83 1501,2484.5C 1439.27,2506.32 1387.6,2491.98 1346,2441.5C 1323.94,2408.85 1317.28,2373.18 1326,2334.5C 1337.36,2294.97 1361.52,2266.14 1398.5,2248C 1412.16,2242.58 1426.16,2239.08 1440.5,2237.5 Z"/></g>
<g><path style="opacity:0.959" fill="#ff5621" d="M 1902.5,2237.5 C 1940.23,2235.78 1969.06,2250.78 1989,2282.5C 2008.85,2250.66 2037.68,2235.82 2075.5,2238C 2107.38,2243.22 2130.88,2260.06 2146,2288.5C 2150.06,2297.74 2152.39,2307.41 2153,2317.5C 2153.5,2374.83 2153.67,2432.17 2153.5,2489.5C 2147.5,2489.5 2141.5,2489.5 2135.5,2489.5C 2135.67,2431.5 2135.5,2373.5 2135,2315.5C 2129.14,2282.64 2109.97,2262.47 2077.5,2255C 2038.65,2251.88 2012.15,2268.38 1998,2304.5C 1997.5,2366.17 1997.33,2427.83 1997.5,2489.5C 1991.5,2489.5 1985.5,2489.5 1979.5,2489.5C 1979.67,2427.5 1979.5,2365.5 1979,2303.5C 1967.28,2272.38 1944.78,2256.05 1911.5,2254.5C 1878.15,2256.43 1855.65,2273.1 1844,2304.5C 1842.48,2310.08 1841.48,2315.74 1841,2321.5C 1840.5,2377.5 1840.33,2433.5 1840.5,2489.5C 1834.83,2489.5 1829.17,2489.5 1823.5,2489.5C 1823.33,2430.17 1823.5,2370.83 1824,2311.5C 1831.2,2274.3 1853.03,2250.47 1889.5,2240C 1893.99,2239.24 1898.32,2238.41 1902.5,2237.5 Z"/></g>
<g><path style="opacity:0.967" fill="#ff5621" d="M 2668.5,2237.5 C 2713.69,2235.36 2750.86,2251.36 2780,2285.5C 2782.42,2288.66 2784.58,2292 2786.5,2295.5C 2782.24,2298.88 2777.74,2301.88 2773,2304.5C 2738.54,2259.01 2694.04,2244.85 2639.5,2262C 2613.87,2272.3 2594.54,2289.63 2581.5,2314C 2654.17,2345.67 2726.83,2377.33 2799.5,2409C 2799.96,2409.41 2800.29,2409.91 2800.5,2410.5C 2775.82,2466.51 2732.82,2494.34 2671.5,2494C 2643.56,2490.8 2618.23,2481.14 2595.5,2465C 2579.89,2451.43 2568.22,2435.1 2560.5,2416C 2565.27,2412.57 2570.6,2410.41 2576.5,2409.5C 2588.31,2438.14 2608.64,2458.31 2637.5,2470C 2697.41,2488.77 2744.24,2471.93 2778,2419.5C 2778.46,2418.26 2777.96,2417.42 2776.5,2417C 2703.73,2385.77 2631.39,2353.77 2559.5,2321C 2579.86,2272.12 2616.19,2244.29 2668.5,2237.5 Z"/></g>
<g><path style="opacity:0.969" fill="#ff5621" d="M 324.5,2238.5 C 360.846,2238.77 392.012,2251.44 418,2276.5C 419.919,2278.69 421.253,2281.02 422,2283.5C 418.019,2286.65 414.186,2289.98 410.5,2293.5C 390.298,2273.06 365.964,2260.56 337.5,2256C 287.065,2253.97 249.898,2275.13 226,2319.5C 204.481,2375.6 217.314,2422.1 264.5,2459C 294.323,2477.97 326.323,2482.64 360.5,2473C 379.925,2466.54 396.425,2455.71 410,2440.5C 414.851,2443.67 418.518,2447.67 421,2452.5C 379.304,2493.91 330.804,2504.41 275.5,2484C 220.609,2456.07 195.443,2411.24 200,2349.5C 208.061,2303.11 233.228,2269.61 275.5,2249C 291.354,2242.6 307.688,2239.1 324.5,2238.5 Z"/></g>
<g><path style="opacity:0.967" fill="#ff5621" d="M 3102.5,2238.5 C 3140.77,2238.85 3172.93,2252.85 3199,2280.5C 3199.67,2281.5 3199.67,2282.5 3199,2283.5C 3195.63,2287.2 3191.97,2290.54 3188,2293.5C 3169.67,2274.53 3147.5,2262.36 3121.5,2257C 3070.74,2251.8 3032.24,2270.96 3006,2314.5C 2991.26,2345.1 2989.6,2376.44 3001,2408.5C 3024.59,2457.71 3063.76,2480.55 3118.5,2477C 3146.03,2473.24 3169.03,2461.07 3187.5,2440.5C 3191.19,2444.02 3195.02,2447.35 3199,2450.5C 3199.67,2451.17 3199.67,2451.83 3199,2452.5C 3159.88,2491.82 3113.72,2503.32 3060.5,2487C 3007.43,2464.37 2979.43,2424.21 2976.5,2366.5C 2978.97,2311.04 3005.31,2271.54 3055.5,2248C 3070.81,2242.31 3086.47,2239.14 3102.5,2238.5 Z"/></g>
<g><path style="opacity:0.989" fill="#ff5721" d="M 678.5,2241.5 C 684.5,2241.5 690.5,2241.5 696.5,2241.5C 696.5,2324.17 696.5,2406.83 696.5,2489.5C 690.5,2489.5 684.5,2489.5 678.5,2489.5C 678.5,2406.83 678.5,2324.17 678.5,2241.5 Z"/></g>
<g><path style="opacity:0.962" fill="#ff5621" d="M 2232.5,2241.5 C 2238.17,2241.5 2243.83,2241.5 2249.5,2241.5C 2249.33,2287.5 2249.5,2333.5 2250,2379.5C 2257.57,2425.74 2283.4,2456.91 2327.5,2473C 2388.29,2486.52 2433.46,2466.02 2463,2411.5C 2468.03,2400.36 2471.03,2388.69 2472,2376.5C 2472.5,2331.5 2472.67,2286.5 2472.5,2241.5C 2478.17,2241.5 2483.83,2241.5 2489.5,2241.5C 2489.92,2288.85 2489.42,2336.18 2488,2383.5C 2481.13,2425.69 2459.29,2457.52 2422.5,2479C 2381.18,2499.63 2339.84,2499.63 2298.5,2479C 2260.87,2457.27 2239.04,2424.77 2233,2381.5C 2232.5,2334.83 2232.33,2288.17 2232.5,2241.5 Z"/></g>
<g><path style="opacity:0.938" fill="#ff5621" d="M 2879.5,2241.5 C 2885.5,2241.5 2891.5,2241.5 2897.5,2241.5C 2897.5,2324.17 2897.5,2406.83 2897.5,2489.5C 2891.5,2489.5 2885.5,2489.5 2879.5,2489.5C 2879.5,2406.83 2879.5,2324.17 2879.5,2241.5 Z"/></g>
</svg>
